<svg width="73" height="68" viewBox="0 0 73 68" fill="none" xmlns="http://www.w3.org/2000/svg">
<path d="M49.9293 48.1165C47.8611 50.3597 44.1363 50.6395 41.8762 48.7214L18.0848 28.5302C14.4783 25.4696 14.7987 20.2077 18.7741 17.2091C22.7129 14.238 28.5417 14.7738 31.3804 18.3678L50.2807 42.2974C51.6493 44.0302 51.5058 46.4067 49.9293 48.1165Z" fill="#C3F53C"/>
<path opacity="0.5" d="M56.0039 40.6938C53.8965 41.1609 51.7306 40.0359 51.0673 38.1296L44.6519 19.6923C43.6004 16.6704 45.5038 13.4969 48.834 12.7198C52.3847 11.8913 55.9662 14.1401 56.425 17.4862L59.0504 36.6337C59.308 38.512 58.0034 40.2507 56.0039 40.6938Z" fill="#F3FFC7"/>
<path opacity="0.5" d="M41.6285 53.6726C42.123 51.807 41.0282 49.9558 39.1364 49.4586L17.1823 43.6883C14.1384 42.8882 10.9075 44.7135 10.0702 47.7063C9.1836 50.8753 11.3548 53.9599 14.7003 54.2843L37.4885 56.4939C39.3712 56.6765 41.1544 55.4612 41.6285 53.6726Z" fill="#F3FFC7"/>
</svg>
