<svg width="18" height="18" viewBox="0 0 18 18" fill="none" xmlns="http://www.w3.org/2000/svg">
<path d="M8.16675 14H9.83342V12.3333H8.16675V14ZM9.00008 0.666626C4.40008 0.666626 0.666748 4.39996 0.666748 8.99996C0.666748 13.6 4.40008 17.3333 9.00008 17.3333C13.6001 17.3333 17.3334 13.6 17.3334 8.99996C17.3334 4.39996 13.6001 0.666626 9.00008 0.666626ZM9.00008 15.6666C5.32508 15.6666 2.33341 12.675 2.33341 8.99996C2.33341 5.32496 5.32508 2.33329 9.00008 2.33329C12.6751 2.33329 15.6667 5.32496 15.6667 8.99996C15.6667 12.675 12.6751 15.6666 9.00008 15.6666ZM9.00008 3.99996C7.15841 3.99996 5.66675 5.49163 5.66675 7.33329H7.33342C7.33342 6.41663 8.08342 5.66663 9.00008 5.66663C9.91675 5.66663 10.6667 6.41663 10.6667 7.33329C10.6667 8.99996 8.16675 8.79163 8.16675 11.5H9.83342C9.83342 9.62496 12.3334 9.41663 12.3334 7.33329C12.3334 5.49163 10.8417 3.99996 9.00008 3.99996Z" fill="#454545"/>
</svg>
