<svg width="221" height="35" viewBox="0 0 221 35" fill="none" xmlns="http://www.w3.org/2000/svg">
<g clip-path="url(#clip0_2017_288)">
<path d="M217.849 29.2188C216.527 29.2188 215.634 28.9408 215.169 28.3848C214.713 27.8197 214.485 26.9583 214.485 25.8008V13.0176H213.104V9.28516H214.485V4.9375H219.243V9.28516H220.624V13.0176H219.243V24.6523C219.243 24.9896 219.298 25.2266 219.407 25.3633C219.517 25.5 219.726 25.5684 220.036 25.5684C220.255 25.5684 220.451 25.5501 220.624 25.5137V28.8496C220.515 28.8861 220.173 28.9544 219.599 29.0547C219.024 29.1641 218.441 29.2188 217.849 29.2188Z" fill="#222222"/>
<path d="M198.825 29V8.49219H203.72V11.1035C203.902 10.3197 204.239 9.6543 204.731 9.10742C205.233 8.55143 205.925 8.27344 206.81 8.27344C208.231 8.27344 209.261 8.71094 209.899 9.58594C210.547 10.4609 210.87 11.6595 210.87 13.1816V29H206.044V13.6875C206.044 13.2865 205.962 12.9173 205.798 12.5801C205.634 12.2337 205.351 12.0605 204.95 12.0605C204.576 12.0605 204.299 12.1927 204.116 12.457C203.943 12.7122 203.834 13.0358 203.788 13.4277C203.743 13.8105 203.72 14.1934 203.72 14.5762V29H198.825Z" fill="#222222"/>
<path d="M190.055 29.2188C188.597 29.2188 187.435 28.9453 186.569 28.3984C185.703 27.8516 185.083 27.0632 184.709 26.0332C184.336 25.0033 184.149 23.7637 184.149 22.3145V14.0703C184.149 12.1654 184.696 10.7253 185.79 9.75C186.883 8.76562 188.387 8.27344 190.301 8.27344C194.239 8.27344 196.208 10.2057 196.208 14.0703V15.5605C196.208 17.3652 196.189 18.5775 196.153 19.1973H189.043V23.1621C189.043 23.5267 189.066 23.8867 189.112 24.2422C189.157 24.5885 189.258 24.8757 189.413 25.1035C189.577 25.3314 189.836 25.4453 190.192 25.4453C190.702 25.4453 191.021 25.2266 191.149 24.7891C191.277 24.3424 191.34 23.7637 191.34 23.0527V21.084H196.208V22.2461C196.208 23.7773 196.016 25.0625 195.633 26.1016C195.26 27.1315 194.622 27.9108 193.719 28.4395C192.826 28.959 191.605 29.2188 190.055 29.2188ZM189.016 16.7637H191.34V14.002C191.34 13.2637 191.249 12.735 191.067 12.416C190.885 12.0879 190.611 11.9238 190.247 11.9238C189.855 11.9238 189.549 12.0788 189.331 12.3887C189.121 12.6986 189.016 13.2363 189.016 14.002V16.7637Z" fill="#222222"/>
<path d="M174.887 32.5547C173.939 32.5547 173.124 32.5046 172.44 32.4043C171.765 32.3132 171.159 32.1445 170.622 31.8984C170.084 31.6523 169.546 31.306 169.008 30.8594L170.663 28.0293C171.857 28.7402 173.051 29.0957 174.245 29.0957C175.028 29.0957 175.612 28.8451 175.995 28.3438C176.377 27.8424 176.569 27.1908 176.569 26.3887V24.3789C176.177 25.7826 175.133 26.4844 173.438 26.4844C172.463 26.4844 171.674 26.252 171.073 25.7871C170.471 25.3223 170.034 24.6934 169.76 23.9004C169.487 23.1074 169.35 22.2233 169.35 21.248V13.8789C169.35 12.776 169.469 11.8053 169.706 10.9668C169.943 10.1191 170.357 9.45833 170.95 8.98438C171.542 8.51042 172.372 8.27344 173.438 8.27344C174.34 8.27344 175.042 8.5013 175.543 8.95703C176.054 9.41276 176.396 10.028 176.569 10.8027V8.49219H181.559V26.0742C181.559 28.3984 181.021 30.0573 179.946 31.0508C178.879 32.0534 177.193 32.5547 174.887 32.5547ZM175.42 22.793C176.186 22.793 176.569 22.1003 176.569 20.7148V13.7422C176.569 13.3685 176.459 12.9857 176.241 12.5938C176.031 12.2018 175.739 12.0059 175.366 12.0059C174.892 12.0059 174.596 12.1836 174.477 12.5391C174.359 12.8854 174.299 13.2865 174.299 13.7422V20.7148C174.299 21.207 174.359 21.6764 174.477 22.123C174.605 22.5697 174.919 22.793 175.42 22.793Z" fill="#222222"/>
<path d="M154.36 29L156.684 4.9375H164.846L167.129 29H162.577L162.235 25.1172H159.336L159.036 29H154.36ZM159.678 21.2754H161.866L160.813 9.03906H160.594L159.678 21.2754Z" fill="#222222"/>
<path d="M146.424 29.2188C142.377 29.2188 140.354 27.168 140.354 23.0664V21.4395H145.275V23.8457C145.275 24.3105 145.367 24.6751 145.549 24.9395C145.731 25.2038 146.023 25.3359 146.424 25.3359C147.135 25.3359 147.49 24.8027 147.49 23.7363C147.49 22.8431 147.303 22.1777 146.93 21.7402C146.556 21.2936 146.1 20.8652 145.562 20.4551L142.951 18.4453C142.131 17.8073 141.507 17.1328 141.078 16.4219C140.65 15.7109 140.436 14.722 140.436 13.4551C140.436 12.2793 140.714 11.3086 141.27 10.543C141.835 9.77734 142.577 9.20768 143.498 8.83398C144.428 8.46029 145.43 8.27344 146.506 8.27344C150.48 8.27344 152.467 10.2559 152.467 14.2207V14.6035H147.408V13.8242C147.408 13.4141 147.335 13.0176 147.189 12.6348C147.053 12.252 146.779 12.0605 146.369 12.0605C145.676 12.0605 145.33 12.4251 145.33 13.1543C145.33 13.8926 145.622 14.4714 146.205 14.8906L149.24 17.1055C150.188 17.7891 150.981 18.6003 151.619 19.5391C152.266 20.4779 152.59 21.7266 152.59 23.2852C152.59 25.2174 152.038 26.6895 150.936 27.7012C149.842 28.7129 148.338 29.2188 146.424 29.2188Z" fill="#222222"/>
<path d="M130.258 29V8.49219H135.234V10.7754C135.471 9.98242 135.891 9.36263 136.492 8.91602C137.094 8.4694 137.85 8.24609 138.762 8.24609V12.334C138.361 12.334 137.882 12.3796 137.326 12.4707C136.77 12.5527 136.283 12.6712 135.863 12.8262C135.444 12.972 135.234 13.1361 135.234 13.3184V29H130.258Z" fill="#222222"/>
<path d="M121.488 29.2188C120.03 29.2188 118.868 28.9453 118.002 28.3984C117.136 27.8516 116.516 27.0632 116.143 26.0332C115.769 25.0033 115.582 23.7637 115.582 22.3145V14.0703C115.582 12.1654 116.129 10.7253 117.223 9.75C118.316 8.76562 119.82 8.27344 121.734 8.27344C125.672 8.27344 127.641 10.2057 127.641 14.0703V15.5605C127.641 17.3652 127.622 18.5775 127.586 19.1973H120.477V23.1621C120.477 23.5267 120.499 23.8867 120.545 24.2422C120.59 24.5885 120.691 24.8757 120.846 25.1035C121.01 25.3314 121.27 25.4453 121.625 25.4453C122.135 25.4453 122.454 25.2266 122.582 24.7891C122.71 24.3424 122.773 23.7637 122.773 23.0527V21.084H127.641V22.2461C127.641 23.7773 127.449 25.0625 127.066 26.1016C126.693 27.1315 126.055 27.9108 125.152 28.4395C124.259 28.959 123.038 29.2188 121.488 29.2188ZM120.449 16.7637H122.773V14.002C122.773 13.2637 122.682 12.735 122.5 12.416C122.318 12.0879 122.044 11.9238 121.68 11.9238C121.288 11.9238 120.982 12.0788 120.764 12.3887C120.554 12.6986 120.449 13.2363 120.449 14.002V16.7637Z" fill="#222222"/>
<path d="M104.994 29.2188C104.046 29.2188 103.294 29.0456 102.738 28.6992C102.182 28.3529 101.767 27.8743 101.494 27.2637C101.22 26.653 101.038 25.9375 100.947 25.1172C100.865 24.2969 100.824 23.4173 100.824 22.4785V13.5645C100.824 11.9876 101.102 10.7116 101.658 9.73633C102.223 8.76107 103.175 8.27344 104.515 8.27344C105.509 8.27344 106.27 8.48763 106.798 8.91602C107.336 9.33529 107.751 9.92318 108.042 10.6797V4.9375H113.019V29H108.042V26.8262C107.769 27.5645 107.404 28.1478 106.949 28.5762C106.502 29.0046 105.85 29.2188 104.994 29.2188ZM106.867 25.3906C107.332 25.3906 107.641 25.2038 107.796 24.8301C107.96 24.4564 108.042 23.7865 108.042 22.8203V14.1934C108.042 13.7103 107.97 13.2363 107.824 12.7715C107.687 12.2975 107.377 12.0605 106.894 12.0605C106.365 12.0605 106.033 12.2839 105.896 12.7305C105.759 13.1771 105.691 13.6647 105.691 14.1934V22.8203C105.691 24.5339 106.083 25.3906 106.867 25.3906Z" fill="#222222"/>
<path d="M90.2085 29.2188C89.2606 29.2188 88.5086 29.0456 87.9526 28.6992C87.3966 28.3529 86.9819 27.8743 86.7085 27.2637C86.4351 26.653 86.2528 25.9375 86.1616 25.1172C86.0796 24.2969 86.0386 23.4173 86.0386 22.4785V13.5645C86.0386 11.9876 86.3166 10.7116 86.8726 9.73633C87.4377 8.76107 88.3901 8.27344 89.73 8.27344C90.7235 8.27344 91.4845 8.48763 92.0132 8.91602C92.5509 9.33529 92.9657 9.92318 93.2573 10.6797V4.9375H98.2339V29H93.2573V26.8262C92.9839 27.5645 92.6193 28.1478 92.1636 28.5762C91.717 29.0046 91.0653 29.2188 90.2085 29.2188ZM92.0815 25.3906C92.5464 25.3906 92.8563 25.2038 93.0112 24.8301C93.1753 24.4564 93.2573 23.7865 93.2573 22.8203V14.1934C93.2573 13.7103 93.1844 13.2363 93.0386 12.7715C92.9019 12.2975 92.592 12.0605 92.1089 12.0605C91.5802 12.0605 91.2476 12.2839 91.1108 12.7305C90.9741 13.1771 90.9058 13.6647 90.9058 14.1934V22.8203C90.9058 24.5339 91.2977 25.3906 92.0815 25.3906Z" fill="#222222"/>
<path d="M75.5327 29.2188C74.3934 29.2188 73.5229 28.9544 72.9214 28.4258C72.3289 27.8971 71.9233 27.1725 71.7046 26.252C71.4858 25.3314 71.3765 24.2878 71.3765 23.1211C71.3765 21.8724 71.4995 20.8516 71.7456 20.0586C71.9917 19.2565 72.411 18.6003 73.0034 18.0898C73.605 17.5794 74.4299 17.1465 75.478 16.791L78.5132 15.752V13.6465C78.5132 12.5436 78.1532 11.9922 77.4331 11.9922C76.7769 11.9922 76.4487 12.4388 76.4487 13.332V14.5625H71.6909C71.6818 14.4896 71.6772 14.3984 71.6772 14.2891C71.6772 14.1706 71.6772 14.0384 71.6772 13.8926C71.6772 11.8509 72.1558 10.4062 73.1128 9.55859C74.0789 8.70182 75.6056 8.27344 77.6929 8.27344C78.7866 8.27344 79.7664 8.4694 80.6323 8.86133C81.4982 9.24414 82.1818 9.8138 82.6831 10.5703C83.1935 11.3268 83.4487 12.2611 83.4487 13.373V29H78.5815V26.5664C78.3446 27.4232 77.9526 28.0794 77.4058 28.5352C76.8589 28.9909 76.2345 29.2188 75.5327 29.2188ZM77.4604 25.418C77.8615 25.418 78.1349 25.2493 78.2808 24.9121C78.4266 24.5749 78.4995 24.2103 78.4995 23.8184V18.1035C77.825 18.377 77.3009 18.7233 76.9272 19.1426C76.5535 19.5527 76.3667 20.1589 76.3667 20.9609V23.5996C76.3667 24.8118 76.7313 25.418 77.4604 25.418Z" fill="#222222"/>
<path d="M56.7959 29V4.9375H61.8271V10.5293C62.0915 9.76367 62.4971 9.19857 63.0439 8.83398C63.5908 8.46029 64.2288 8.27344 64.958 8.27344C66.3799 8.27344 67.4144 8.72005 68.0615 9.61328C68.7087 10.5065 69.0322 11.7051 69.0322 13.209V29H64.083V13.5234C64.083 13.0768 63.9873 12.7122 63.7959 12.4297C63.6136 12.1471 63.3219 12.0059 62.9209 12.0059C62.5837 12.0059 62.3148 12.1517 62.1143 12.4434C61.9229 12.735 61.8271 13.0814 61.8271 13.4824V29H56.7959Z" fill="#222222"/>
<path d="M48.8193 29.2188C46.6227 29.2188 45.0368 28.6719 44.0615 27.5781C43.0954 26.4844 42.6123 24.7435 42.6123 22.3555V20.0039H47.3701V23.0117C47.3701 23.5677 47.4521 24.0052 47.6162 24.3242C47.7894 24.6341 48.0856 24.7891 48.5049 24.7891C48.9424 24.7891 49.2432 24.6615 49.4072 24.4062C49.5804 24.151 49.667 23.7318 49.667 23.1484C49.667 22.4102 49.5941 21.7949 49.4482 21.3027C49.3024 20.8014 49.0472 20.3275 48.6826 19.8809C48.3271 19.4251 47.8304 18.8965 47.1924 18.2949L45.0322 16.2441C43.4189 14.722 42.6123 12.9811 42.6123 11.0215C42.6123 8.9707 43.0863 7.40755 44.0342 6.33203C44.9912 5.25651 46.3721 4.71875 48.1768 4.71875C50.3825 4.71875 51.9456 5.30664 52.8662 6.48242C53.7959 7.6582 54.2607 9.44466 54.2607 11.8418H49.3662V10.1875C49.3662 9.85938 49.2705 9.60417 49.0791 9.42188C48.8968 9.23958 48.6462 9.14844 48.3271 9.14844C47.9443 9.14844 47.6618 9.25781 47.4795 9.47656C47.3063 9.6862 47.2197 9.95964 47.2197 10.2969C47.2197 10.6341 47.3109 10.9987 47.4932 11.3906C47.6755 11.7826 48.0355 12.2337 48.5732 12.7441L51.3486 15.4102C51.9046 15.9388 52.415 16.4993 52.8799 17.0918C53.3447 17.6751 53.7184 18.3587 54.001 19.1426C54.2835 19.9173 54.4248 20.8652 54.4248 21.9863C54.4248 24.2467 54.0055 26.0195 53.167 27.3047C52.3376 28.5807 50.8883 29.2188 48.8193 29.2188Z" fill="#222222"/>
<path d="M10.4116 20.8315L7.30029 23.773V27.6804C8.23887 28.5898 9.28554 29.3486 10.4116 29.9445V20.8315Z" fill="url(#paint0_linear_2017_288)"/>
<path d="M26.3881 27.5225V11.209L23.2769 14.325V29.857C24.4042 29.2405 25.4504 28.4598 26.3847 27.526L26.3881 27.5225Z" fill="url(#paint1_linear_2017_288)"/>
<path d="M28.4792 1.94493L28.9909 2.52489L14.5009 16.4204L11.4647 13.131L3.51427 21.0206L0.972656 23.5429C1.39819 24.735 1.95499 25.8649 2.62589 26.915L4.96932 24.6994L11.4939 18.5304L14.7643 21.537L31.5935 4.6813L32.2356 5.15659L33.5268 0L28.4792 1.94493Z" fill="url(#paint2_linear_2017_288)"/>
<path d="M3.15675 17.9048C3.15675 14.2701 4.57191 10.8534 7.14227 8.2835C9.7122 5.71357 13.1293 4.29841 16.7635 4.29841C19.2743 4.29841 21.6812 4.97446 23.7767 6.23905L24.4343 5.60804C22.1556 4.18045 19.5183 3.41603 16.7631 3.41603C12.893 3.41603 9.25449 4.92299 6.51812 7.65978C3.78176 10.3966 2.27437 14.0346 2.27437 17.9048C2.27437 18.8472 2.36445 19.7755 2.53904 20.6806L1.37097 21.8401C1.04839 20.5695 0.881952 19.25 0.881952 17.9052C0.881952 13.6632 2.5339 9.67506 5.53365 6.67531C8.53297 3.67599 12.5215 2.02404 16.7635 2.02404C19.9035 2.02404 22.9046 2.93002 25.4685 4.61714L26.1188 3.99342C23.4468 2.19305 20.2278 1.14209 16.7635 1.14209C7.50517 1.14166 0 8.64683 0 17.9048C0 19.8831 0.342743 21.7813 0.972035 23.5435L3.51365 21.0212C3.27815 20.0114 3.15675 18.9673 3.15675 17.9048Z" fill="url(#paint3_linear_2017_288)"/>
<path d="M29.9883 7.60297L29.3607 8.2314C31.4901 10.9931 32.6445 14.3596 32.6445 17.9046C32.6445 22.1466 30.9925 26.1347 27.9928 29.1344C27.6843 29.4429 27.3648 29.7367 27.0357 30.0164V28.1212C29.7545 25.3879 31.2516 21.7614 31.2516 17.9046C31.2516 14.7332 30.2388 11.7176 28.3677 9.22617L27.738 9.85718C29.4465 12.177 30.3701 14.9696 30.3701 17.9046C30.3701 21.5375 28.9562 24.9529 26.3884 27.5224C26.3871 27.5237 26.3863 27.525 26.385 27.5258C25.4511 28.4597 24.4049 29.2404 23.2772 29.8568C21.8993 30.6101 20.3992 31.1175 18.8326 31.3552V18.7766L15.7214 21.8927V31.4714C13.8455 31.3303 12.0456 30.8087 10.4116 29.9439C9.2856 29.3481 8.23892 28.5892 7.30035 27.6798C7.24759 27.6288 7.19439 27.5777 7.14206 27.5254C6.28628 26.6696 5.55918 25.7194 4.96892 24.6989L2.62549 26.9145C3.84332 28.8213 5.4365 30.4651 7.30035 31.7421C8.26895 32.4057 9.31091 32.9707 10.4116 33.4215C12.0657 34.0993 13.8519 34.5201 15.7214 34.6351C16.0662 34.6561 16.4137 34.6672 16.7633 34.6672C17.4638 34.6672 18.1545 34.6239 18.8322 34.5407C20.8689 34.2902 22.7928 33.6742 24.5357 32.7601C25.1788 32.4229 25.7973 32.045 26.388 31.6302C30.7051 28.5974 33.5264 23.5802 33.5264 17.9041C33.5264 14.0203 32.2052 10.4453 29.9883 7.60297Z" fill="url(#paint4_linear_2017_288)"/>
</g>
<defs>
<linearGradient id="paint0_linear_2017_288" x1="6.20128" y1="9.33961" x2="9.4241" y2="27.4496" gradientUnits="userSpaceOnUse">
<stop stop-color="#D1E4A5"/>
<stop offset="0.5" stop-color="#ACD479"/>
<stop offset="1" stop-color="#C3F53C"/>
</linearGradient>
<linearGradient id="paint1_linear_2017_288" x1="22.3297" y1="6.4689" x2="25.5525" y2="24.579" gradientUnits="userSpaceOnUse">
<stop stop-color="#D1E4A5"/>
<stop offset="0.5" stop-color="#ACD479"/>
<stop offset="1" stop-color="#C3F53C"/>
</linearGradient>
<linearGradient id="paint2_linear_2017_288" x1="16.4909" y1="7.50817" x2="19.7137" y2="25.6182" gradientUnits="userSpaceOnUse">
<stop stop-color="#D1E4A5"/>
<stop offset="0.5" stop-color="#ACD479"/>
<stop offset="1" stop-color="#C3F53C"/>
</linearGradient>
<linearGradient id="paint3_linear_2017_288" x1="12.4421" y1="8.22859" x2="15.6649" y2="26.3391" gradientUnits="userSpaceOnUse">
<stop stop-color="#D1E4A5"/>
<stop offset="0.5" stop-color="#ACD479"/>
<stop offset="1" stop-color="#C3F53C"/>
</linearGradient>
<linearGradient id="paint4_linear_2017_288" x1="15.5854" y1="7.66903" x2="18.8086" y2="25.7791" gradientUnits="userSpaceOnUse">
<stop stop-color="#D1E4A5"/>
<stop offset="0.5" stop-color="#ACD479"/>
<stop offset="1" stop-color="#C3F53C"/>
</linearGradient>
<clipPath id="clip0_2017_288">
<rect width="221" height="35" fill="white"/>
</clipPath>
</defs>
</svg>
