<svg width="42" height="42" viewBox="0 0 42 42" fill="none" xmlns="http://www.w3.org/2000/svg">
<circle cx="20.9995" cy="20.9995" r="21" fill="#C3F53C"/>
<path d="M15 23.9992C14.17 23.9992 13.42 24.3392 12.88 24.8792C11.7 26.0592 11 30.9992 11 30.9992C11 30.9992 15.94 30.2992 17.12 29.1192C17.66 28.5792 18 27.8292 18 26.9992C18 25.3392 16.66 23.9992 15 23.9992ZM15.71 27.7092C15.43 27.9892 13.54 28.4692 13.54 28.4692C13.54 28.4692 14.01 26.5892 14.3 26.2992C14.47 26.1092 14.72 25.9992 15 25.9992C15.55 25.9992 16 26.4492 16 26.9992C16 27.2792 15.89 27.5292 15.71 27.7092ZM26.42 22.6492C32.78 16.2892 30.66 11.3392 30.66 11.3392C30.66 11.3392 25.71 9.2192 19.35 15.5792L16.86 15.0792C16.21 14.9492 15.53 15.1592 15.05 15.6292L11 19.6892L16 21.8292L20.17 25.9992L22.31 30.9992L26.36 26.9492C26.83 26.4792 27.04 25.7992 26.91 25.1392L26.42 22.6492ZM16.41 19.8292L14.5 19.0092L16.47 17.0392L17.91 17.3292C17.34 18.1592 16.83 19.0292 16.41 19.8292ZM22.99 27.4992L22.17 25.5892C22.97 25.1692 23.84 24.6592 24.66 24.0892L24.95 25.5292L22.99 27.4992ZM25 21.2392C23.68 22.5592 21.62 23.6392 20.96 23.9692L18.03 21.0392C18.35 20.3892 19.43 18.3292 20.76 16.9992C25.44 12.3192 28.99 13.0092 28.99 13.0092C28.99 13.0092 29.68 16.5592 25 21.2392ZM24 19.9992C25.1 19.9992 26 19.0992 26 17.9992C26 16.8992 25.1 15.9992 24 15.9992C22.9 15.9992 22 16.8992 22 17.9992C22 19.0992 22.9 19.9992 24 19.9992Z" fill="#22242F"/>
</svg>
