<svg width="42" height="42" viewBox="0 0 42 42" fill="none" xmlns="http://www.w3.org/2000/svg">
<circle cx="21" cy="21" r="21" fill="#C3F53C"/>
<path d="M33.6382 22.262C34.9794 22.5106 36 23.6879 36 25.1034C36 26.7019 34.7036 28 33.1072 28C31.5109 28 30.2179 26.7019 30.2179 25.1034C30.2179 23.6879 31.235 22.5106 32.5797 22.262V19.5311H21.8085V22.262C23.1532 22.5106 24.1703 23.6879 24.1703 25.1034C24.1703 26.7019 22.8774 28 21.281 28C19.6846 28 18.3917 26.7019 18.3917 25.1034C18.3917 23.6879 19.4088 22.5106 20.7535 22.262V19.5311H9.4203V22.262C10.765 22.5106 11.7821 23.6879 11.7821 25.1034C11.7821 26.7019 10.4891 28 8.89277 28C7.2964 28 6 26.7019 6 25.1034C6 23.6879 7.02057 22.5106 8.3618 22.262V18.4746H20.7535V16.738C19.4088 16.4894 18.3917 15.3121 18.3917 13.8932C18.3917 12.2981 19.6846 11 21.281 11C22.8774 11 24.1703 12.2981 24.1703 13.8932C24.1703 15.3121 23.1532 16.4894 21.8085 16.738V18.4746H33.6382V22.262ZM23.1153 25.1034C23.1153 24.0918 22.2912 23.2701 21.281 23.2701C20.2708 23.2701 19.4467 24.0918 19.4467 25.1034C19.4467 26.1149 20.2708 26.9401 21.281 26.9401C22.2912 26.9401 23.1153 26.1184 23.1153 25.1034Z" fill="#22242F"/>
</svg>
