<svg width="42" height="42" viewBox="0 0 42 42" fill="none" xmlns="http://www.w3.org/2000/svg">
<circle cx="21" cy="21" r="21" fill="#C3F53C"/>
<path d="M30 14.18L18.59 25.6L14.35 21.36L15.76 19.95L18.59 22.78L28.59 12.78L30 14.18ZM20 29C15.59 29 12 25.41 12 21C12 16.59 15.59 13 20 13C21.57 13 23.04 13.46 24.28 14.25L25.73 12.8C24.1 11.67 22.13 11 20 11C14.48 11 10 15.48 10 21C10 26.52 14.48 31 20 31C21.73 31 23.36 30.56 24.78 29.78L23.28 28.28C22.28 28.74 21.17 29 20 29ZM27 24H24V26H27V29H29V26H32V24H29V21H27V24Z" fill="#22242F"/>
</svg>
