<svg width="20" height="18" viewBox="0 0 20 18" fill="none" xmlns="http://www.w3.org/2000/svg">
<path d="M8.88338 6.40842L9.66672 9.00008H12.0167L10.125 10.3501L10.9 12.8584L8.88338 11.3251L6.86672 12.8584L7.64172 10.3501L5.75005 9.00008H8.10005L8.88338 6.40842ZM6.86672 7.33342H0.550049L5.69172 11.0084L3.74172 17.3334L8.88338 13.4251L14.0334 17.3334L12.075 11.0084L17.2167 7.33342H10.9L8.88338 0.666748L6.86672 7.33342ZM17.5167 17.3334L15.9667 12.3251L19.4501 9.83342H16.5834L14.0167 11.6667L15.2334 15.6001L17.5167 17.3334ZM13.8834 5.66675L12.3667 0.666748L11.5 3.54175L12.1417 5.66675H13.8834Z" fill="#C3F53C"/>
</svg>
