<svg width="42" height="42" viewBox="0 0 42 42" fill="none" xmlns="http://www.w3.org/2000/svg">
<circle cx="21" cy="21" r="21" fill="#C3F53C"/>
<path d="M33.9838 20.3578C34.3392 27.5155 28.8038 33.6279 21.6463 33.9833C21.4247 33.9958 21.2073 34 20.9941 34C14.1167 34 8.3598 28.5858 8.01698 21.6455C7.84138 18.1796 9.03291 14.8516 11.3616 12.2762C13.6945 9.70073 16.8886 8.19144 20.3545 8.01584C27.5161 7.66465 33.6284 13.1959 33.9838 20.3578ZM21.546 31.9723C27.5914 31.6713 32.2697 26.5037 31.9687 20.4581C31.676 14.5924 26.8138 10.0185 21.0067 10.0185C20.8227 10.0185 20.6388 10.0227 20.4548 10.031C17.5241 10.1774 14.8275 11.4525 12.8583 13.6308C10.8892 15.8048 9.88578 18.6144 10.0279 21.5452C10.3289 27.5949 15.5048 32.2649 21.546 31.9723Z" fill="#22242F"/>
<path d="M23.2364 24.3384C25.2596 24.3384 26.9771 25.7994 27.5 27.7773C25.9675 29.4903 23.8397 30.6139 21.4384 30.7378C18.7274 30.883 16.2416 29.7253 14.5 27.7944C15.0149 25.8293 16.7082 24.3683 18.7113 24.3426L18.9165 23.014C18.5826 22.8133 18.2608 22.5655 17.9752 22.2622C17.388 21.6385 17.0099 20.8738 16.8369 20.0707C16.4588 19.8613 16.1934 19.4469 16.1934 18.9642C16.1934 18.4815 16.4749 18.0329 16.8812 17.8364C17.0702 17.1016 17.4322 16.4096 17.9752 15.8329C19.6485 14.0557 22.3595 14.0557 24.0328 15.8329C24.5597 16.3925 24.9177 17.0632 25.1148 17.7723C25.6055 17.9218 25.9675 18.396 25.9675 18.9642C25.9675 19.5324 25.6256 19.9809 25.155 20.1475C24.974 20.9208 24.604 21.6556 24.0328 22.2622C23.715 22.5997 23.3611 22.8731 22.983 23.0824L23.1761 24.3384H23.2364ZM21.9814 29.8065L21.5189 26.7819H20.5133L20.1231 29.8406L21.0684 30.5455L21.9814 29.8065ZM21.5309 25.7524L21.7119 25.009H20.3041L20.4851 25.7524H21.5309ZM21.5189 26.2479C21.5189 26.0856 21.3942 25.9489 21.2373 25.9489H20.7949C20.638 25.9489 20.5133 26.0856 20.5133 26.2479C20.5133 26.4103 20.638 26.547 20.7949 26.547H21.2373C21.3942 26.547 21.5189 26.4145 21.5189 26.2479Z" fill="#22242F"/>
</svg>
