<svg width="18" height="18" viewBox="0 0 18 18" fill="none" xmlns="http://www.w3.org/2000/svg">
<path d="M13.1665 4.2085V9.42516L14.8332 10.2585V4.2085C14.8332 3.29183 14.0832 2.54183 13.1665 2.54183H9.83317C9.83317 1.39183 8.89984 0.458496 7.74984 0.458496C6.59984 0.458496 5.6665 1.39183 5.6665 2.54183H2.3415C1.42484 2.54183 0.674837 3.29183 0.674837 4.2085V7.37516C2.9165 7.37516 3.1665 9.17516 3.1665 9.62516C3.1665 10.0752 2.92484 11.8752 0.666504 11.8752V15.0418C0.666504 15.9585 1.4165 16.7085 2.33317 16.7085H5.49984C5.49984 14.9085 6.6415 14.3918 7.33317 14.2585V12.5668C6.1415 12.7085 4.70817 13.4335 4.10817 15.0418H2.33317V13.2668C4.1415 12.6002 4.83317 10.8752 4.83317 9.62516C4.83317 8.3835 4.1415 6.6585 2.3415 5.9835V4.2085H7.33317V2.54183C7.33317 2.3085 7.5165 2.12516 7.74984 2.12516C7.98317 2.12516 8.1665 2.3085 8.1665 2.54183V4.2085H13.1665Z" fill="#454545"/>
<path d="M8.99984 9.2085V12.5418L12.3332 13.3752L8.99984 14.2085V17.5418L17.3332 13.3752L8.99984 9.2085Z" fill="#454545"/>
</svg>
